# xmcd
#
# Track frame offsets:
#	150
#	18215
#	34255
#	52835
#	71910
#	91973
#	113855
#	135098
#	142635
#	164070
#	181905
#	211170
#	230755
#	248143
#	266340
#	283322
#	300424
#
# Disc length: 4389 seconds
#
# Revision: 0
# Processed by: cddbd v1.5.1PL0 Copyright (c) Steve Scherf et al.
# Submitted via: audiograbber 1.81.03
#
DISCID=e5112311
DTITLE=Pharao - All Hits
DYEAR=2005
DGENRE=Techno
TTITLE0=There Is A Star
TTITLE1=King Pharao
TTITLE2=I Show You Secrets
TTITLE3=World Of Magic
TTITLE4=Dance Of The Snake
TTITLE5=Eternity
TTITLE6=Gold In The Pyramid
TTITLE7=Beautiful Flower Of The Bad
TTITLE8=We Got The Key
TTITLE9=It's Your Way
TTITLE10=Rave Like An Egyptian
TTITLE11=Chrismasland
TTITLE12=I Show You Secrets (Unplugged)
TTITLE13=Once Upon A Time
TTITLE14=Pick Me Up
TTITLE15=Temple Of Love
TTITLE16=There Ia A Star (Maxi Vers.)
EXTD=
EXTT0=
EXTT1=
EXTT2=
EXTT3=
EXTT4=
EXTT5=
EXTT6=
EXTT7=
EXTT8=
EXTT9=
EXTT10=
EXTT11=
EXTT12=
EXTT13=
EXTT14=
EXTT15=
EXTT16=
PLAYORDER=
